PathFileType	4	(X/Y/Z)	C:/Users/opensim2020/Desktop/walking_exp_matlab/subject03_walking10_straight_02.trc																																																																																																																																					
DataRate	CameraRate	NumFrames	NumMarkers	Units	OrigDataRate	OrigDataStartFrame	OrigNumFrames																																																																																																																																	
100	100	6	45	mm	100	1901	347																																																																																																																																	
Frame#	Time	LFHD			RFHD			LBHD			RBHD			C7			T10			CLAV			STRN			RBAK			LSHO			LUPA			LELB			LFRM			LWRA			LWRB			LFIN			RSHO			RUPA			RELB			RFRM			RWRA			RWRB			RFIN			LASI			RASI			LPSI			RPSI			LTHI			LKNE			LTIB			LANK			LHEE			LTOE			RTHI			RKNE			RTIB			RANK			RHEE			RTOE			*39			*40			*41			*42			*43			*44		
		X1	Y1	Z1	X2	Y2	Z2	X3	Y3	Z3	X4	Y4	Z4	X5	Y5	Z5	X6	Y6	Z6	X7	Y7	Z7	X8	Y8	Z8	X9	Y9	Z9	X10	Y10	Z10	X11	Y11	Z11	X12	Y12	Z12	X13	Y13	Z13	X14	Y14	Z14	X15	Y15	Z15	X16	Y16	Z16	X17	Y17	Z17	X18	Y18	Z18	X19	Y19	Z19	X20	Y20	Z20	X21	Y21	Z21	X22	Y22	Z22	X23	Y23	Z23	X24	Y24	Z24	X25	Y25	Z25	X26	Y26	Z26	X27	Y27	Z27	X28	Y28	Z28	X29	Y29	Z29	X30	Y30	Z30	X31	Y31	Z31	X32	Y32	Z32	X33	Y33	Z33	X34	Y34	Z34	X35	Y35	Z35	X36	Y36	Z36	X37	Y37	Z37	X38	Y38	Z38	X39	Y39	Z39	X40	Y40	Z40	X41	Y41	Z41	X42	Y42	Z42	X43	Y43	Z43	X44	Y44	Z44	X45	Y45	Z45
																																																																																																																																								
87	0.86	-509.42395	1601.72314	921.82123	-528.9433	1605.46899	1053.17078	-642.6308	1580.56433	905.88208	-656.54828	1582.83044	1036.27454	-703.80133	1417.52307	955.38586	-749.23859	1103.12329	958.4472	-588.16638	1334.14575	971.73828	-549.51337	1168.60901	971.15509	-775.73236	1241.58423	1045.8219	-609.66095	1371.73962	813.11322	-575.89087	1183.92798	734.1955	-536.38586	1068.07129	720.48816	-471.20825	956.60736	729.29236	-419.73169	852.21417	766.52777	-432.51498	850.60699	712.08276	-387.15887	781.37158	725.97839	-650.68433	1359.16553	1124.62317	-657.3833	1137.63147	1200.19604	-640.57068	1026.69568	1216.57104	-618.11237	891.75122	1221.63538	-580.23462	798.06726	1190.66125	-615.30896	791.78247	1231.42651	-586.88269	722.54602	1225.43811	-579.94757	938.22699	851.35876	-592.15802	935.74115	1089.77942	-744.58594	963.21533	895.76306	-750.92493	962.62671	1044.37134	-653.19849	638.23761	820.3877	-667.01697	461.51089	861.70581	-736.61658	276.96927	864.09546	-771.86584	69.21402	910.15887	-812.96338	35.25746	947.70154	-619.98663	29.63362	935.04126	-579.08667	645.84155	1139.52551	-500.19525	482.88098	1111.89233	-543.86011	296.54507	1113.34534	-575.03186	83.09534	1068.60852	-616.24011	51.52587	1012.11578	-440.79843	40.5639	1066.94116	-587.93445	1678.32007	962.09955	NaN	NaN	NaN	NaN	NaN	NaN	NaN	NaN	NaN	NaN	NaN	NaN	NaN	NaN	NaN
88	0.87	-502.29486	1601.12854	923.1413	-522.22021	1604.37988	1054.47119	-635.39404	1580.00989	906.73615	-649.76868	1581.80884	1037.05139	-696.8255	1416.87439	955.76709	-742.75446	1102.53027	958.97479	-581.27991	1333.29016	972.16168	-542.93726	1167.70898	971.41656	-769.02332	1241.026	1046.16772	-602.68005	1371.11731	813.58307	-568.24902	1183.64282	734.42963	-528.0387	1068.14941	720.67017	-461.53589	957.58173	729.82489	-408.64478	854.13501	767.58887	-421.41809	852.05365	713.17096	-374.88766	783.77454	727.35645	-643.84515	1358.32971	1125.00659	-651.33069	1136.70288	1200.19812	-634.92432	1025.65344	1216.3855	-612.74152	890.6557	1221.14917	-574.96411	796.9939	1190.08008	-610.15302	790.61615	1230.73657	-581.90155	721.34723	1224.58167	-573.66248	937.6756	851.45911	-585.41852	934.77301	1089.96204	-738.25732	962.52368	896.25098	-744.3089	961.72955	1044.75513	-648.4021	637.86713	820.73627	-663.60767	461.255	861.71045	-734.82532	277.15814	864.14935	-771.64081	69.65758	910.24579	-812.9295	35.87373	947.78625	-619.85077	29.59726	935.00696	-573.27692	644.80548	1139.55542	-492.78558	482.41565	1111.62122	-530.12372	295.07272	1113.09729	-552.59021	80.56741	1068.8158	-592.65051	47.86883	1012.08594	-416.85959	41.47884	1066.65918	-579.26898	1673.63538	970.38464	NaN	NaN	NaN	NaN	NaN	NaN	NaN	NaN	NaN	NaN	NaN	NaN	NaN	NaN	NaN
89	0.88	-495.05505	1600.55408	924.43774	-515.44568	1603.35889	1055.78125	-628.11707	1579.4054	907.50238	-642.84784	1580.7323	1037.82495	-689.84137	1416.22437	956.2218	-736.28387	1101.93677	959.53088	-574.37952	1332.48059	972.57922	-536.31573	1166.8479	971.79382	-762.2674	1240.4071	1046.52942	-595.57971	1370.37	814.12109	-560.56561	1183.31702	734.81378	-519.89471	1068.06958	720.99188	-452.18613	958.35516	730.54346	-397.94504	855.86633	768.8092	-410.64301	853.34235	714.38824	-363.00696	785.97485	728.90955	-637.026	1357.51038	1125.43652	-645.08936	1135.78101	1200.23352	-629.1864	1024.64343	1216.16675	-607.3576	889.55261	1220.68921	-569.70709	795.83124	1189.43945	-604.93793	789.47021	1229.9729	-576.91919	720.19916	1223.62622	-567.28528	937.06195	851.5603	-578.60956	933.867	1090.25183	-731.81653	961.80316	896.7525	-737.62201	960.76984	1045.28125	-643.6615	637.58057	820.90692	-660.19403	460.96545	861.69165	-733.00714	277.38101	864.15277	-771.43243	70.08156	910.3067	-813.1424	36.74364	947.68262	-619.58374	29.57294	934.67041	-567.48547	643.66223	1139.69434	-485.76541	481.75485	1111.04993	-516.64685	293.81992	1112.90771	-530.41254	78.43815	1069.0177	-569.32684	44.84365	1012.20612	-393.41586	42.23084	1066.44824	-571.85175	1678.7229	964.56317	NaN	NaN	NaN	NaN	NaN	NaN	NaN	NaN	NaN	NaN	NaN	NaN	NaN	NaN	NaN
90	0.89	-487.75027	1599.87683	925.78699	-508.50763	1602.25085	1057.05444	-620.74908	1578.85168	908.4184	-635.90167	1579.68982	1038.5625	-682.77002	1415.50244	956.69952	-729.59003	1101.28906	960.08307	-567.40057	1331.66138	973.08667	-529.57819	1165.94556	972.17651	-755.42017	1239.78027	1046.96106	-588.56512	1369.68542	814.69238	-552.9704	1182.896	735.22455	-511.82449	1067.84912	721.35876	-443.00641	958.9856	731.33228	-387.55908	857.39099	770.12427	-400.22336	854.37842	715.71069	-351.55496	787.97162	730.5127	-630.0498	1356.67542	1125.97937	-638.75189	1134.83301	1200.20947	-623.27112	1023.55829	1215.94934	-601.82813	888.42804	1220.19592	-564.33734	794.75781	1188.76172	-599.73157	788.34705	1229.19897	-571.92505	718.95264	1222.65881	-560.83099	936.4425	851.81207	-571.73517	932.93439	1090.51892	-725.08453	961.05188	897.36182	-730.85608	959.81519	1045.76282	-638.67169	637.2005	821.35358	-656.49872	460.66257	861.65985	-731.07526	277.61649	864.15149	-771.16809	70.47416	910.33618	-813.04456	37.47428	947.70587	-619.73761	29.34098	935.07568	-561.6535	642.45374	1139.9198	-478.87384	481.12537	1110.73596	-503.53412	292.72754	1112.86218	-508.52301	76.62831	1069.13916	-546.47559	42.56844	1012.23932	-370.51901	42.85227	1066.35645	-564.96295	1672.21472	973.51251	NaN	NaN	NaN	NaN	NaN	NaN	NaN	NaN	NaN	NaN	NaN	NaN	NaN	NaN	NaN
91	0.9	-480.40137	1599.22961	927.14032	-501.62012	1601.22607	1058.34082	-613.38849	1578.20068	909.27551	-628.95862	1578.79321	1039.51697	-675.58661	1414.76929	957.25476	-722.83496	1100.59302	960.6123	-560.37067	1330.797	973.66644	-522.79608	1165.07935	972.58868	-748.51392	1239.09729	1047.39624	-581.52405	1368.89612	815.29047	-545.57031	1182.31921	735.69629	-504.07858	1067.49792	721.88959	-434.13538	959.42517	732.22607	-377.59464	858.68823	771.53546	-390.26334	855.20483	717.18262	-340.64072	789.63635	732.23358	-623.0896	1355.85278	1126.56213	-632.2981	1133.87268	1200.26978	-617.26764	1022.48578	1215.75012	-596.20447	887.2771	1219.69336	-558.93677	793.59045	1188.16174	-594.40912	787.11389	1228.39331	-566.86743	717.56775	1221.63123	-554.33356	935.71417	852.08325	-564.79028	932.04987	1090.92505	-718.51227	960.31458	897.88812	-723.95642	958.85846	1046.35095	-633.495	636.73993	821.63257	-652.703	460.30182	861.64325	-728.88263	277.81232	864.12366	-770.72778	70.88199	910.24841	-812.80609	38.18723	947.64648	-619.6795	29.25739	935.0376	-555.56671	641.20972	1140.22864	-472.20224	480.21359	1110.09607	-490.96237	291.71323	1112.61877	-487.39886	75.43452	1069.2937	-524.21899	41.11119	1012.03973	-348.30011	43.46432	1066.43921	-556.58661	1676.49048	965.90198	NaN	NaN	NaN	NaN	NaN	NaN	NaN	NaN	NaN	NaN	NaN	NaN	NaN	NaN	NaN
92	0.91	-473.02325	1598.43481	928.52319	-494.5918	1600.17712	1059.69299	-605.93225	1577.61243	910.25568	-621.89075	1577.82922	1040.36938	-668.34137	1413.98438	957.90283	-715.96918	1099.89734	961.22815	-553.27618	1329.98718	974.20062	-515.85278	1164.15295	973.04877	-741.49146	1238.40381	1047.93274	-574.35498	1368.10962	815.94354	-538.16882	1181.72156	736.24518	-496.20755	1067.00598	722.46423	-425.55844	959.65442	733.2522	-367.98935	859.74731	773.06677	-380.67865	855.82623	718.73865	-330.19699	791.03833	734.05194	-615.93353	1354.97156	1127.19812	-625.71722	1132.88025	1200.40601	-611.15259	1021.4248	1215.58105	-590.52808	886.12421	1219.21448	-553.40839	792.40179	1187.47485	-588.94733	785.94458	1227.72827	-561.79877	716.3255	1220.58875	-547.74683	935.03833	852.38055	-557.75513	931.11957	1091.31128	-711.87415	959.62738	898.55603	-716.94519	957.99335	1046.95117	-628.32031	636.27362	821.61847	-648.47296	459.86752	861.56366	-726.60236	277.97418	864.02161	-770.35529	71.35385	910.23633	-812.745	39.22106	947.66779	-619.61188	29.26634	935.07068	-548.41162	639.83484	1141.01978	-465.89728	479.246	1109.41919	-478.93582	290.77979	1112.1709	-467.04385	74.72744	1069.36951	-502.56543	40.10058	1011.97595	-326.87042	44.21692	1066.61145	-549.62695	1675.75659	967.82495	NaN	NaN	NaN	NaN	NaN	NaN	NaN	NaN	NaN	NaN	NaN	NaN	NaN	NaN	NaN
